<svg width="35" height="35" viewBox="0 0 35 35" fill="none" xmlns="http://www.w3.org/2000/svg">
<g clip-path="url(#clip0_36_1052)">
<path d="M21.6016 17.7734C21.2243 17.7734 20.918 18.0797 20.918 18.457C20.918 18.8343 21.2243 19.1406 21.6016 19.1406C21.9789 19.1406 22.2852 18.8343 22.2852 18.457C22.2852 18.0797 21.9789 17.7734 21.6016 17.7734Z" fill="black"/>
<path d="M6.98408 25.2783L0.148156 33.8916C-0.0149984 34.0969 -0.0459737 34.3776 0.0680474 34.6136C0.182069 34.8499 0.421326 35 0.683548 35H34.3163C34.5785 35 34.8178 34.8499 34.9318 34.6136C35.0461 34.3776 35.0149 34.0969 34.8517 33.8916L28.0158 25.2783C27.8863 25.1149 27.6889 25.0195 27.4804 25.0195H21.4923L26.6045 17.0012C27.8038 15.2033 28.4374 13.1066 28.4374 10.9375C28.4374 4.90665 23.531 0 17.4999 0C11.4688 0 6.56245 4.90665 6.56245 10.9375C6.56245 13.1066 7.19611 15.203 8.39533 17.0012L13.5076 25.0195H7.51948C7.31093 25.0195 7.11386 25.1149 6.98408 25.2783ZM4.43183 30.6934H8.56516L6.2324 33.6328H2.0988L4.43183 30.6934ZM14.3794 26.3867L16.2534 29.3262H11.3957L13.7287 26.3867H14.3794ZM20.6207 26.3867H21.2714L23.6042 29.3262H18.7467L20.6207 26.3867ZM24.6894 30.6934L27.0222 33.6328H7.9777L10.3107 30.6934H24.6894ZM28.7677 33.6328L26.4347 30.6934H30.5683L32.9011 33.6328H28.7677ZM29.4831 29.3262H25.3498L23.0167 26.3867H27.1503L29.4831 29.3262ZM9.53661 16.2482C8.48532 14.6743 7.92963 12.8379 7.92963 10.9375C7.92963 5.66048 12.2229 1.36719 17.4999 1.36719C22.7769 1.36719 27.0702 5.66048 27.0702 10.9375C27.0702 12.8379 26.5145 14.6743 25.4635 16.2482C25.4606 16.2522 25.4582 16.2562 25.4555 16.2602C25.0066 16.9643 17.8457 28.1961 17.4999 28.7382C16.6302 27.3739 10.4301 17.6493 9.54435 16.2602C9.54195 16.2562 9.53928 16.2522 9.53661 16.2482ZM11.9831 26.3867L9.65036 29.3262H5.51676L7.84979 26.3867H11.9831Z" fill="black"/>
<path d="M17.5 17.7734C21.2528 17.7734 24.3359 14.7344 24.3359 10.9375C24.3359 7.16812 21.2694 4.10156 17.5 4.10156C13.7306 4.10156 10.6641 7.16812 10.6641 10.9375C10.6641 14.7355 13.7482 17.7734 17.5 17.7734ZM17.5 5.46875C20.5155 5.46875 22.9687 7.92194 22.9687 10.9375C22.9687 13.9811 20.4958 16.4062 17.5 16.4062C14.5034 16.4062 12.0312 13.9811 12.0312 10.9375C12.0312 7.92194 14.4844 5.46875 17.5 5.46875Z" fill="black"/>
<path d="M20.3791 20.1062C20.056 19.9113 19.6357 20.0154 19.4408 20.3388L16.9142 24.5306C16.7192 24.854 16.8234 25.274 17.1468 25.4689C17.4715 25.6647 17.891 25.5584 18.0851 25.2363L20.6117 21.0445C20.8066 20.7212 20.7025 20.3011 20.3791 20.1062Z" fill="black"/>
</g>
<defs>
<clipPath id="clip0_36_1052">
<rect width="35" height="35" fill="white"/>
</clipPath>
</defs>
</svg>
