<svg width="35" height="35" viewBox="0 0 35 35" fill="none" xmlns="http://www.w3.org/2000/svg">
<g clip-path="url(#clip0_36_1057)">
<path d="M29.8748 5.12531C26.5696 1.8202 22.1748 0 17.5 0C12.8252 0 8.43035 1.8202 5.12524 5.12531C1.8202 8.43035 0 12.8252 0 17.5C0 22.1748 1.8202 26.5696 5.12524 29.8747C8.43035 33.1798 12.8252 35 17.5 35C22.1748 35 26.5696 33.1798 29.8748 29.8747C33.1798 26.5696 35 22.1748 35 17.5C35 12.8252 33.1798 8.43035 29.8748 5.12531ZM29.1093 29.1093C26.0086 32.2099 21.8857 33.9175 17.5 33.9175C13.1143 33.9175 8.99138 32.2099 5.89066 29.1093C2.79002 26.0087 1.08247 21.8857 1.08247 17.5C1.08247 13.1143 2.79002 8.99131 5.89066 5.89066C8.99138 2.79009 13.1143 1.08247 17.5 1.08247C21.8857 1.08247 26.0086 2.79009 29.1093 5.89066C32.21 8.99131 33.9175 13.1142 33.9175 17.5C33.9175 21.8858 32.21 26.0087 29.1093 29.1093Z" fill="black"/>
<path d="M17.5001 3.24744C15.4836 3.24744 13.5347 3.66087 11.7075 4.47613C9.94329 5.26329 8.37896 6.38438 7.0588 7.80735C4.60107 10.4444 3.24756 13.8868 3.24756 17.5C3.24756 21.1132 4.60107 24.5556 7.05805 27.1919C8.37909 28.6156 9.94336 29.7368 11.7076 30.5239C13.5347 31.3392 15.4837 31.7526 17.5002 31.7526C19.4712 31.7526 21.3794 31.3575 23.1716 30.5783C24.9063 29.8242 26.4511 28.7477 27.7614 27.3806C30.3352 24.7208 31.7528 21.2118 31.7528 17.5C31.7527 9.64109 25.3591 3.24744 17.5001 3.24744ZM26.9815 26.6297C24.4846 29.2352 21.1173 30.6701 17.5001 30.6701C15.6366 30.6701 13.8361 30.2883 12.1487 29.5354C10.5185 28.808 9.07273 27.7719 7.85067 26.4548C5.58039 24.0186 4.33003 20.8384 4.33003 17.5C4.33003 14.1616 5.58039 10.9814 7.85156 8.5444C9.07273 7.22821 10.5185 6.19202 12.1487 5.4646C13.8361 4.71176 15.6366 4.32991 17.5001 4.32991C24.7622 4.32991 30.6703 10.238 30.6703 17.5C30.6703 20.9294 29.3609 24.1709 26.9815 26.6297Z" fill="black"/>
<path d="M18.041 5.23193H16.9585V8.47935H18.041V5.23193Z" fill="black"/>
<path d="M18.041 26.5206H16.9585V29.768H18.041V26.5206Z" fill="black"/>
<path d="M29.768 16.9587H26.8813V18.0412H29.768V16.9587Z" fill="black"/>
<path d="M8.11854 16.9587H5.23193V18.0412H8.11854V16.9587Z" fill="black"/>
<path d="M8.86161 8.81784L8.09619 9.58325L10.2613 11.7484L11.0267 10.9829L8.86161 8.81784Z" fill="black"/>
<path d="M25.7784 8.81817L23.6133 10.9833L24.3787 11.7487L26.5438 9.58359L25.7784 8.81817Z" fill="black"/>
<path d="M24.3772 23.2512L23.6118 24.0166L25.7769 26.1817L26.5423 25.4163L24.3772 23.2512Z" fill="black"/>
<path d="M10.2628 23.2515L8.09766 25.4166L8.86307 26.182L11.0282 24.0169L10.2628 23.2515Z" fill="black"/>
<path d="M18.041 16.915V10.2834H16.9585V17.3633L22.1686 22.5734L22.9341 21.8079L18.041 16.915Z" fill="black"/>
</g>
<defs>
<clipPath id="clip0_36_1057">
<rect width="35" height="35" fill="white"/>
</clipPath>
</defs>
</svg>
