<svg width="35" height="35" viewBox="0 0 35 35" fill="none" xmlns="http://www.w3.org/2000/svg">
<path d="M34.7405 14.716L34.7406 14.716L30.2714 11.753V1.84957C30.2714 1.52944 30.0119 1.2699 29.6917 1.2699H5.3075C4.98737 1.2699 4.72783 1.52944 4.72783 1.84957V11.7537L0.259385 14.716L0.259463 14.7161C0.103182 14.8199 0 14.9974 0 15.1991V33.1505C0 33.4706 0.25954 33.7301 0.579675 33.7301H34.4203C34.7405 33.7301 35 33.4706 35 33.1505V15.1991C35 14.9974 34.8968 14.8199 34.7405 14.716ZM4.72783 16.7433L2.90958 15.7788H4.72783V16.7433ZM1.15935 16.1628L14.4899 23.234L1.15935 32.0703V16.1628ZM17.4998 22.6297L32.4969 32.5708H2.50273L17.4998 22.6297ZM20.5098 23.2341L33.8406 16.1628V32.0707L20.5098 23.2341ZM30.2714 15.7788H32.0905L30.2714 16.7437V15.7788ZM32.4969 14.6194H30.2714V13.144L32.4969 14.6194ZM29.112 2.42925V17.3587L19.4101 22.5051L17.82 21.4511C17.6259 21.3224 17.3736 21.3224 17.1795 21.4511L15.5896 22.5049L5.88718 17.3583V2.42925H29.112ZM4.72783 14.6194H2.50327L4.72783 13.1447V14.6194Z" fill="black"/>
<path d="M17.4998 16.5146H22.1182C22.4383 16.5146 22.6979 16.2551 22.6979 15.935C22.6979 15.6148 22.4383 15.3553 22.1182 15.3553H17.4998C15.2729 15.3553 13.4611 13.5435 13.4611 11.3166V11.1455C13.4611 8.91857 15.2729 7.10681 17.4998 7.10681C19.7268 7.10681 21.5385 8.91857 21.5385 11.1455V11.5732C21.5385 12.0552 21.1464 12.4475 20.6642 12.4475C20.1821 12.4475 19.7899 12.0553 19.7899 11.5732V10.7607C19.7899 9.37999 18.6667 8.25666 17.286 8.25666C15.9052 8.25666 14.782 9.37991 14.782 10.7607C14.782 12.1414 15.9052 13.2647 17.286 13.2647C17.9173 13.2647 18.4945 13.0293 18.9353 12.6423C19.2943 13.2207 19.9348 13.6067 20.6642 13.6067C21.7855 13.6067 22.6979 12.6945 22.6979 11.5731V11.1454C22.6979 8.27923 20.366 5.94739 17.4998 5.94739C14.6336 5.94739 12.3018 8.27923 12.3018 11.1454V11.3165C12.3018 14.1828 14.6336 16.5146 17.4998 16.5146ZM17.286 12.1053C16.5445 12.1053 15.9413 11.5021 15.9413 10.7607C15.9413 10.0193 16.5446 9.41601 17.286 9.41601C18.0273 9.41601 18.6306 10.0193 18.6306 10.7607C18.6306 11.5021 18.0274 12.1053 17.286 12.1053Z" fill="black"/>
</svg>
