<svg width="35" height="35" viewBox="0 0 35 35" fill="none" xmlns="http://www.w3.org/2000/svg">
<path d="M25.1544 35C24.0246 35 22.9043 34.8003 21.8089 34.4023C16.9831 32.6492 12.5037 29.794 8.85481 26.1452C5.20594 22.4964 2.35068 18.0169 0.59768 13.191C0.0343535 11.6402 -0.13189 10.0393 0.103735 8.4326C0.324459 6.92767 0.907404 5.46668 1.78961 4.20755C2.67572 2.94289 3.85706 1.89102 5.20587 1.16568C6.64423 0.39223 8.21417 0 9.87223 0C10.3879 0 10.8336 0.360308 10.9417 0.864506L12.6584 8.87583C12.7361 9.2386 12.6246 9.61606 12.3623 9.87841L9.42894 12.8117C12.1961 18.3135 16.6864 22.8037 22.1881 25.5709L25.1214 22.6375C25.3838 22.3752 25.7613 22.2639 26.124 22.3415L34.1353 24.0582C34.6396 24.1662 34.9998 24.6119 34.9998 25.1276C34.9998 26.7857 34.6076 28.3557 33.8341 29.794C33.1087 31.1428 32.0569 32.3242 30.7922 33.2103C29.5332 34.0925 28.0722 34.6754 26.5672 34.8962C26.0956 34.9654 25.624 34.9999 25.1544 35ZM8.99836 2.23526C6.81129 2.4767 4.8701 3.62303 3.58103 5.46285C2.13146 7.53166 1.79344 10.0762 2.65364 12.4442C6.02389 21.722 13.278 28.9761 22.5557 32.3463C24.9237 33.2065 27.4682 32.8686 29.5371 31.4189C31.3769 30.1299 32.5233 28.1887 32.7647 26.0016L26.2475 24.6051L23.1841 27.6686C22.8581 27.9945 22.3628 28.0812 21.9456 27.8851C15.4388 24.8282 10.1718 19.5612 7.11486 13.0543C6.91889 12.6371 7.00543 12.1418 7.33142 11.8159L10.3949 8.75244L8.99836 2.23526Z" fill="black"/>
</svg>
